<?xml version="1.0" encoding="utf-8"?>
<!-- Generator: Adobe Illustrator 22.0.1, SVG Export Plug-In . SVG Version: 6.00 Build 0)  -->
<svg version="1.1" id="Calque_1" xmlns="http://www.w3.org/2000/svg" xmlns:xlink="http://www.w3.org/1999/xlink" x="0px" y="0px"
	 viewBox="0 0 500 500" style="enable-background:new 0 0 500 500;" xml:space="preserve">
<style type="text/css">
	.st0{fill:#232529;}
</style>
<g>
	<path class="st0" d="M317.2,93.5c-28,0-51,8.4-68.8,25.1c-17.8,16.7-29.7,42-35.7,75.8h136v45.9H208.3l-0.6,13.4v16.4l0.6,11.6H330
		v45.6H213.4c12.7,62.1,48.9,93.1,108.6,93.1c28.4,0,57.6-6.2,87.4-18.5v60.6c-26.1,12.1-56.4,18.2-91,18.2
		c-47.9,0-86.9-13.1-116.8-39.4c-29.9-26.3-49.5-64.2-58.6-114H97.6v-45.6h40.6l-0.6-11v-11l0.6-19.4H97.6v-45.9h44.7
		c7.6-49.9,26.6-89.1,57-117.5c30.4-28.4,69.7-42.7,117.8-42.7c39.8,0,75.4,8.8,106.8,26.3l-25.1,55.8
		C368.3,101,341.1,93.5,317.2,93.5z"/>
</g>
</svg>
