<?xml version="1.0" encoding="utf-8"?>
<!-- Generator: Adobe Illustrator 22.0.1, SVG Export Plug-In . SVG Version: 6.00 Build 0)  -->
<svg version="1.1" id="Layer_1" xmlns="http://www.w3.org/2000/svg" xmlns:xlink="http://www.w3.org/1999/xlink" x="0px" y="0px"
	 viewBox="0 0 136.9 136.9" style="enable-background:new 0 0 136.9 136.9;" xml:space="preserve">
<style type="text/css">
	.st0{fill:#FF9800;}
	.st1{fill:#FFFFFF;}
</style>
<g>
	<g>
		<g>
			<g>
				<circle class="st0" cx="69.4" cy="68.7" r="63.3"/>
			</g>
		</g>
	</g>
</g>
<g>
	<g>
		<g>
			<path class="st1" d="M103.2,47.8c-0.6-0.3-1.4-0.1-1.7,0.5l-5.7,9.9c-0.5-0.1-1-0.1-1.6,0c0,0,0,0,0,0c-0.4,0-0.7,0.1-1,0.2
				l-0.7,0.2L91.1,59c-0.8,0.1-1.6-0.1-2.3-0.5L82,54.6c-0.8-0.5-1.1-1.6-0.6-2.4l1.2-2.1c0,0,0,0,0,0l5.5-9.5
				c0.3-0.6,0.1-1.4-0.5-1.7c-0.6-0.3-1.4-0.1-1.7,0.5l-4.9,8.4l-0.6-0.3c-2.5-1.4-22.7-5.2-26.8-5.9c0,0,0,0,0,0
				C51.3,41,49,42,47.9,44l-2.1,3.6C44.4,50,45.4,53.3,48,55l-0.5,0.9c-0.4,0.7-0.5,1.6-0.3,2.4c0.2,0.8,0.7,1.5,1.5,1.9l0.3,0.2
				c0.5,0.3,1,0.4,1.6,0.4c0.3,0,0.6,0,0.8-0.1c0.8-0.2,1.5-0.7,1.9-1.5l0.5-0.8l3,1.7c-4,1.3-7.6,3.8-10.2,7.1
				c-0.6,0.8-1.2,1.6-1.7,2.5c0,0-0.1,0.1-0.1,0.2c-1.5,2.6-2.5,5.5-2.8,8.5c0,0,0,0.1,0,0.1c-0.1,0.8-0.1,1.7-0.1,2.5
				c0,5.7,2.2,10.9,5.8,14.8c0.1,0.1,0.1,0.2,0.2,0.2c2.3,2.5,5.2,4.4,8.5,5.6c0.1,0,0.1,0,0.2,0.1c2.3,0.8,4.8,1.3,7.4,1.3
				c2.9,0,5.6-0.6,8.2-1.6c0.1,0,0.1,0,0.2-0.1c3.1-1.3,5.9-3.2,8.1-5.7c0.1-0.1,0.1-0.1,0.2-0.2c3.4-3.9,5.4-8.9,5.4-14.4
				c0-0.8,0-1.6-0.1-2.4c0,0,0,0,0-0.1c0-0.1,0-0.2,0-0.3c0,0,0,0,0,0l-0.1-0.9l0.3-0.6c0.7,0.2,1.4,0.4,2.1,0.4
				c1.9,0,3.7-0.9,4.6-2.5l2.1-3.6l4.9-8.4c0.7-1.2,0.2-2.8-1.1-3.5c0,0,0,0,0,0l5.4-9.5C104.1,48.9,103.8,48.1,103.2,47.8z
				 M73.2,47.9l1.1,3.9l-1.8-0.3l-1.1-4C72,47.6,72.7,47.8,73.2,47.9z M64.1,46l1.1,4.2l-1.8-0.3l-1.1-4.3
				C62.9,45.7,63.5,45.8,64.1,46z M51.1,58c-0.1,0.2-0.2,0.3-0.4,0.3c-0.2,0-0.4,0-0.5-0.1L50,58.1c0,0,0,0,0,0
				c-0.2-0.1-0.3-0.2-0.3-0.4c0-0.2,0-0.4,0.1-0.5l0.5-0.8l1.4,0.8L51.1,58z M57.1,62.6l-2.9,5l-5.6,1.1
				C50.8,66,53.7,63.9,57.1,62.6z M61.3,67c1.1,0,2.2-0.6,2.8-1.6l0.5-0.8l2.9,1.7c1,0.6,2.2,0.8,3.2,0.6c0.5-0.1,1,0,1.5,0.3l3.5,2
				c1.2,0.7,2.1,1.7,2.5,2.9c0.1,0.3,0.3,0.5,0.6,0.7l1.2,0.7l-0.5,0.9c-0.9,1.5-0.4,3.5,1.2,4.4l0,0l0.3,0.2
				c0.4,0.2,0.8,0.4,1.2,0.4l-4.6,4.7l-6.2-1.4l-0.7-2l-1.4-4.3l2.1-3.3c0.4-0.6,0.2-1.4-0.4-1.7c-0.6-0.4-1.4-0.2-1.7,0.4l-2.1,3.2
				h-6.7l-3.9-6l1.9-3.3c0.3,0.4,0.6,0.8,1.1,1l0.3,0.2C60.2,66.9,60.8,67,61.3,67z M60.5,63.3l0.5-0.8l0.9,0.5l0.6,0.3l-0.5,0.8
				c-0.2,0.3-0.6,0.4-0.9,0.2l-0.3-0.2c0,0,0,0,0,0c-0.2-0.1-0.3-0.2-0.3-0.4C60.3,63.7,60.4,63.5,60.5,63.3z M68.7,83.1l-2.5,1.8
				l-2.5,1.8l-5-3.6l1.9-5.9h6.2L68.7,83.1z M46.6,71.6l7.8-1.5l3.9,6l-2.1,6.4l-5.1,1.1L50,83.9l-5.6-5.8
				C44.8,75.8,45.5,73.6,46.6,71.6z M47.6,91.9c-2-3-3.3-6.6-3.4-10.4l4.1,4.2L47.6,91.9z M49.8,94.6l1-8.3l5.9-1.3l0.3-0.1l5.5,4
				v5.9l-6,4.3C54,98.1,51.7,96.5,49.8,94.6z M63.7,100.5c-1.4,0-2.9-0.2-4.2-0.5l4.3-3.1l4.8,2.9C67,100.3,65.4,100.5,63.7,100.5z
				 M71.6,98.8l-6.6-4v-5.9L69,86l1.5-1.1l0.4,0.1l5.8,1.3l1.3,8C76.2,96.2,74,97.7,71.6,98.8z M80.1,91.6l-0.9-5.9l4.1-4.1
				C83.1,85.3,82,88.7,80.1,91.6z M83,76.4c-0.2,0.3-0.6,0.4-0.9,0.2l-0.3-0.2c-0.3-0.2-0.4-0.6-0.2-0.9l0.5-0.8l1.4,0.8L83,76.4z
				 M85.9,74l-5.6-3.2c-0.7-1.6-1.8-2.9-3.4-3.8l-3.5-2c-1-0.6-2.2-0.8-3.3-0.6c-0.5,0.1-1,0-1.5-0.3l-4-2.3c0,0,0,0,0,0l-1.2-0.7
				L54,55.6c0,0,0,0,0,0l-3.6-2.1c0,0,0,0,0,0L49.6,53c-1.6-0.9-2.3-2.6-1.7-4c0.5,1,1.4,1.9,2.5,2.6l19.1,11.1
				c1,0.6,2.2,0.8,3.2,0.6c0.5-0.1,1,0,1.5,0.3l3.5,2c1.2,0.7,2.1,1.7,2.5,2.9c0.1,0.3,0.3,0.5,0.6,0.7l6,3.4c1,0.6,2.1,0.9,3.2,0.9
				c0.1,0,0.2,0,0.2,0C89.3,74.6,87.4,74.8,85.9,74z M92.3,69.6c-0.4,0.6-1,1.1-1.8,1.2c-0.8,0.2-1.8,0-2.6-0.5l-5.6-3.2
				c-0.7-1.6-1.8-2.9-3.4-3.8l-3.5-2c-1-0.6-2.2-0.8-3.3-0.6c-0.5,0.1-1,0-1.5-0.3L51.6,49.4c-1.6-1-2.3-2.8-1.5-4.2
				c0.6-1,1.9-1.5,3.2-1.3c1.9,0.3,4,0.7,6.2,1.2l1.7,6.2c0.1,0.5,0.5,0.8,1,0.9l4.5,0.8c0.1,0,0.1,0,0.2,0c0.3,0,0.7-0.1,0.9-0.4
				c0.3-0.3,0.4-0.8,0.3-1.2l-1.3-4.9c0.6,0.1,1.2,0.3,1.8,0.4l1.6,6c0.1,0.5,0.5,0.8,1,0.9l4.5,0.8c0.1,0,0.1,0,0.2,0
				c0.3,0,0.7-0.1,0.9-0.4c0.3-0.3,0.4-0.8,0.3-1.2L76,48.5c1.7,0.4,2.9,0.8,3.3,1l0.6,0.3l-0.6,1.1c-1.2,2-0.5,4.7,1.6,5.9l5.9,3.4
				l-1.8,0.5c-0.7,0.2-1.1,0.9-0.9,1.5c0.2,0.6,0.7,0.9,1.2,0.9c0.1,0,0.2,0,0.3,0l6-1.6c0.3,0,0.7-0.1,1-0.2l0.7-0.2l1.4-0.4
				c0.8-0.1,1.6,0.1,2.3,0.5c0.1,0,0.1,0.1,0.1,0.1L92.3,69.6z"/>
		</g>
	</g>
	<g>
		<g>
			<path class="st1" d="M105.7,44.2c-0.2-0.2-0.6-0.4-0.9-0.4s-0.7,0.1-0.9,0.4c-0.2,0.2-0.4,0.6-0.4,0.9c0,0.3,0.1,0.7,0.4,0.9
				c0.2,0.2,0.6,0.4,0.9,0.4c0.3,0,0.7-0.1,0.9-0.4c0.2-0.2,0.4-0.6,0.4-0.9C106,44.8,105.9,44.5,105.7,44.2z"/>
		</g>
	</g>
</g>
</svg>
