<?xml version="1.0" encoding="utf-8"?>
<!-- Generator: Adobe Illustrator 22.0.1, SVG Export Plug-In . SVG Version: 6.00 Build 0)  -->
<svg version="1.1" id="Layer_1" xmlns="http://www.w3.org/2000/svg" xmlns:xlink="http://www.w3.org/1999/xlink" x="0px" y="0px"
	 viewBox="0 0 136.9 136.9" style="enable-background:new 0 0 136.9 136.9;" xml:space="preserve">
<style type="text/css">
	.st0{fill:#795548;}
	.st1{fill:#FFFFFF;}
</style>
<g>
	<g>
		<g>
			<g>
				<circle class="st0" cx="69.4" cy="68.7" r="63.3"/>
			</g>
		</g>
	</g>
</g>
<g>
	<g>
		<path class="st1" d="M100.9,97.3L86.2,55.7c0.4,0.1,1.5,0.5,2.5,0.7c0.8,0.2,1.7-0.3,2.3-1c0.9-1,1.2-2.4,0.7-3.6
			c-0.8-1.8-1.8-3.5-3-5.1l-2.2-2.9c-2.5-3.4-5.8-6.1-9.6-7.9c-3.5-1.7-7.5-2.6-11.4-2.6c0,0-0.6-1.6-2.4-1.5
			c-0.4,0-0.8,0.1-1.2,0.3c-1.3,0.7-1.4,1.6-1.4,1.7c-3.9,0.7-7.6,2.4-10.8,4.8L47.6,40c-3.2,2.4-5.8,5.5-7.6,9c0,0-1-0.1-2,0.9
			c-0.5,0.5-0.7,1.2-0.7,1.9c0,1.2,0.9,1.9,0.9,1.9c-1.1,3.8-1.4,7.8-0.7,11.7c0.7,4.1,2.4,8.1,4.9,11.4l2.2,2.9
			c1.2,1.6,2.5,3,4.1,4.3c0.6,0.5,1.3,0.8,2.1,0.8c0.5,0,1.1-0.1,1.5-0.4c2.1-1.4,1.7-3.3,1.7-3.3l23.1,17.3
			c0.2,0.1,0.4,0.2,0.6,0.2h0c1,0,1.4-1.2,0.6-1.8L53.6,78.6c0.2-2.9,1.2-5.7,2.9-8.1c0.3,0.1,0.6,0.2,0.9,0.2c1,0,1.7-0.6,1.9-0.9
			c0.5-0.5,0.7-1.2,0.7-1.9c0-0.3-0.1-0.5-0.1-0.7l5.8-4.3l23.4,35.4c0.2,0.3,0.5,0.5,0.8,0.5c0.8,0,1.3-0.9,0.8-1.6L67.4,61.6
			l4.7-3.5c0.4,0.3,1,0.5,1.5,0.5c0.6,0,1-0.2,1.2-0.3c1-0.5,1.5-1.5,1.5-2.5c2.4-0.9,5-1.1,7.6-0.7L99,98c0.1,0.4,0.5,0.7,0.9,0.7
			C100.7,98.6,101.2,98,100.9,97.3z M81.4,41.3c4.7,4.8,6.2,7.5,6.5,7.9c-0.1,0-6.9-3.4-14.8-0.4l-4.7-9.6
			C72.8,38.8,77.3,39.6,81.4,41.3z M75.5,37.5c-2.7-0.4-5.4-0.5-8.1-0.2l-1-2C69.6,35.5,72.7,36.2,75.5,37.5z M48.8,41.6l2.1-1.5
			c2.9-2.2,6.3-3.7,9.9-4.4l1.3,2.6c-0.4,0.1-0.9,0.3-1.3,0.4c-0.5,0.2-0.8,0.8-0.6,1.3c0.3,0.9,1.2,0.6,1.3,0.6
			c0.5-0.2,1-0.3,1.5-0.5l5.5,11.2L54.6,61.7l-9.2-8.5c1.8-2.7,4-5.1,6.6-7c0,0,2.7-2,2.9-2.2c0.5-0.3,0.6-0.9,0.2-1.4
			c-0.3-0.5-0.9-0.6-1.4-0.2c-0.2,0.2-3,2.2-3,2.2c-2.7,2-5,4.5-6.9,7.2l-2.2-2C43.5,46.6,45.8,43.9,48.8,41.6z M39.7,55.3l1.6,1.5
			c-1,2.5-1.7,5.1-2.1,7.8C38.8,61.5,39,58.3,39.7,55.3z M46.9,79.8c-0.3-0.4-4.2-5-5.7-8.5c-0.5-4.4,0.1-8.9,1.7-13.1l7.9,7.3
			C45.7,71.9,46.9,79.7,46.9,79.8z M51.7,81.5c0.1,0.8-0.5,1.1-0.6,1.2c-0.2,0.1-0.8,0.4-1.4-0.1c-0.4-0.4-0.9-0.8-1.3-1.2
			c0.4-0.7,0.6-1.4,0.5-2.3c-0.5-4.4,0.7-8.8,3.3-12.3l2.7,2.5C52.4,72.8,51.2,77.2,51.7,81.5z M57.9,68.4c0,0-0.6,0.5-1,0
			L39.4,52.2c-0.1-0.1-0.4-0.6,0-0.9c0.4-0.4,0.8-0.2,0.9,0l17.5,16.2C58,67.6,58.2,68.1,57.9,68.4z M58.7,65.6l-2.6-2.4l13.2-9.9
			l1.6,3.2L58.7,65.6z M73.9,56.5c0,0-0.5,0.3-0.9-0.4L62.4,34.7c-0.1-0.2-0.2-0.7,0.3-0.9c0.4-0.2,0.8,0.1,0.9,0.3l10.6,21.4
			C74.4,55.9,74.2,56.3,73.9,56.5z M75.6,53.9L74,50.6c4.1-1.5,8.7-1.4,12.7,0.3c0.5,0.2,0.9,0.3,1.4,0.3c0.3,0,0.6,0,0.9-0.1
			c0.3,0.5,0.5,1,0.8,1.6c0.3,0.7-0.1,1.2-0.3,1.4c-0.1,0.1-0.6,0.6-1.4,0.3C84.2,52.6,79.6,52.4,75.6,53.9z"/>
	</g>
</g>
</svg>
