<?xml version="1.0" encoding="utf-8"?>
<!-- Generator: Adobe Illustrator 22.0.1, SVG Export Plug-In . SVG Version: 6.00 Build 0)  -->
<svg version="1.1" id="Layer_1" xmlns="http://www.w3.org/2000/svg" xmlns:xlink="http://www.w3.org/1999/xlink" x="0px" y="0px"
	 viewBox="0 0 136.9 136.9" style="enable-background:new 0 0 136.9 136.9;" xml:space="preserve">
<style type="text/css">
	.st0{fill:#A02222;}
	.st1{fill:#FFFFFF;}
</style>
<g>
	<g>
		<g>
			<g>
				<circle class="st0" cx="68.5" cy="68.5" r="63.3"/>
			</g>
		</g>
	</g>
</g>
<path class="st1" d="M76.4,56.2l-7.9,7.9l-7.9-7.9l-4.3,4.3l7.9,7.9l-7.9,7.9l4.3,4.3l7.9-7.9l7.9,7.9l4.3-4.3l-7.9-7.9l7.9-7.9
	L76.4,56.2z M68.5,37.8c-16.9,0-30.6,13.7-30.6,30.6s13.7,30.6,30.6,30.6s30.6-13.7,30.6-30.6S85.4,37.8,68.5,37.8z M68.5,93
	C55,93,44,82,44,68.5S55,44,68.5,44S93,55,93,68.5S82,93,68.5,93z"/>
</svg>
