<?xml version="1.0" encoding="utf-8"?>
<!-- Generator: Adobe Illustrator 22.0.1, SVG Export Plug-In . SVG Version: 6.00 Build 0)  -->
<svg version="1.1" id="Layer_1" xmlns="http://www.w3.org/2000/svg" xmlns:xlink="http://www.w3.org/1999/xlink" x="0px" y="0px"
	 viewBox="0 0 136.9 136.9" style="enable-background:new 0 0 136.9 136.9;" xml:space="preserve">
<style type="text/css">
	.st0{fill:#2196F3;}
	.st1{fill:#FFFFFF;}
</style>
<g>
	<g>
		<g>
			<g>
				<circle class="st0" cx="69.4" cy="68.7" r="63.3"/>
			</g>
		</g>
	</g>
</g>
<g>
	<g>
		<g>
			<path class="st1" d="M101.1,68.8l-3.2-2.1c-0.2-0.1-0.4-0.2-0.6-0.2h-1.1v-3.2c0-0.6-0.5-1.1-1.1-1.1h-4.3
				c-0.6,0-1.1,0.5-1.1,1.1v3.2H70.4v-2.1c0.3,0,0.6-0.1,0.8-0.3c0.4,0.2,0.9,0.3,1.4,0.3c1.8,0,3.2-1.4,3.2-3.2s-1.4-3.2-3.2-3.2
				c-0.4,0-0.7,0.1-1.1,0.2v-0.2c0-0.6-0.5-1.1-1.1-1.1h0l0-1.5l1.8-0.9c2-1,4.1-2,6.1-3c1.1-0.5,2-1.2,2.7-2.2
				c0.4-0.6,0.6-1.4,0.6-2.1c0,0,0,0,0,0c0,0,0,0,0,0c0-0.8-0.2-1.6-0.6-2.3c-0.9-1.3-2.2-2.2-3.6-2.8l-0.1,0c-2.5-1.3-5.2-2.3-8-3
				c-1-3.2-9.7-3.4-11.4-0.4h-2.4c-1.2,0-2.1,1-2.1,2.1v3.2c0,1.2,1,2.1,2.1,2.1v7.5c0,1.2,1,2.1,2.1,2.1H64v1.1
				c-0.6,0-1.1,0.5-1.1,1.1v5.4c0,0.6,0.5,1.1,1.1,1.1v2.1h-2.1c-1.2,0-2.1,1-2.1,2.1H38.2c-0.6,0-1.1,0.5-1.1,1.1v5.4
				c0,0.6,0.5,1.1,1.1,1.1h21.5c0,0.8,0.4,1.5,1.1,1.9v16.4c0,1.2,1,2.1,2.1,2.1h2.1c1.2,0,2.1-1,2.1-2.1V83.7
				c0.6,0,1.1-0.5,1.1-1.1h2.3l0.7,5.5c0.2,1.8,1.8,3,3.6,2.8l6.7-0.7l0.6,3.5c0.1,0.7,0.6,1.3,1.2,1.6v2.6c0,1.1,0.8,2,1.8,2.2
				l5.4,0.8c0.1,0,0.2,0,0.3,0c0.5,0,1-0.2,1.4-0.5c0.5-0.4,0.8-1,0.8-1.7v-2.6c0-0.6-0.2-1.1-0.6-1.6l-0.1-0.1
				c0.3-0.5,0.4-1.1,0.2-1.7L89,82.3l6.3-0.7c0.5-0.1,0.9-0.5,0.9-1.1v-2.1c0.2,0,0.5-0.1,0.6-0.2l4.3-3.2c0,0,0,0,0-0.1
				c0.1-0.1,0.2-0.2,0.2-0.2c0,0,0.1-0.1,0.1-0.1c0.1-0.1,0.1-0.3,0.1-0.5v-4.3C101.6,69.4,101.4,69,101.1,68.8z M72.6,60.1
				c0.6,0,1.1,0.5,1.1,1.1s-0.5,1.1-1.1,1.1c-0.6,0-1.1-0.5-1.1-1.1C71.5,60.5,72,60.1,72.6,60.1z M53.2,74h-14v-3.2h14V74z
				 M59.7,74h-3.2h-1.1v-3.2h4.3V74z M91.9,64.4h2.1v2.1h-2.1V64.4z M79.2,48.1c-0.4,0.6-1.1,1.1-1.8,1.4c-2.1,1-4.2,2-6.2,3
				l-1.8,0.9c-0.7,0.4-1.2,1.1-1.2,1.9v1.5h-2.1v-1.1V52c0-2.1-1.7-3.8-3.8-3.8c-0.6,0-1.2-0.3-1.4-0.9L79.2,48.1
				C79.2,48.1,79.2,48.1,79.2,48.1z M65.1,62.2V59h4.3v3.2H65.1z M68.3,64.4v2.1h-2.1v-2.1H68.3z M63.4,38.6c2.3,0,3.6,0.8,3.8,1.1
				c-0.2,0.3-1.5,1.1-3.8,1.1c-2.4,0-3.7-0.8-3.8-1.1C59.8,39.4,61.1,38.6,63.4,38.6z M57.2,45c-0.4-0.7-1.1-1.1-1.9-1.1v-3.2h2.4
				c0.8,1.4,3.2,2.1,5.6,2.1c2.2,0,4.3-0.6,5.3-1.8c2.6,0.7,5.2,1.6,7.6,2.8l0.1,0c1.1,0.4,2,1,2.7,1.9c0,0,0,0,0,0L57.2,45z
				 M57.5,53.6v-6.4l1.1,0c0.3,1.8,1.9,3.1,3.7,3.1c0.9,0,1.6,0.7,1.6,1.6v1.6L57.5,53.6L57.5,53.6z M62.9,94.5V83.7h2.1l0,10.7
				H62.9z M66.1,81.6h-3.2v-3.2h3.2V81.6z M74.6,88.9c-0.3,0-0.6,0-0.8-0.2c-0.2-0.2-0.4-0.4-0.4-0.7l-0.7-5.3h3.1v0.9l-1,3.1
				c-0.1,0.4,0,0.9,0.3,1.2c0.4,0.3,0.8,0.3,1.2,0.1l4.3-2.6l0.5,2.9L74.6,88.9z M77.7,84.5l0.2-0.5c0-0.1,0.1-0.2,0.1-0.3v-1.1h2.3
				l0,0.1l0,0l0,0.2L77.7,84.5z M90.9,98.8l-5.4-0.9v-2.3h4.9l0.5,0.5L90.9,98.8z M90.4,93.4h-6.2L82.5,83l0.7-0.5
				c0.8-0.6,1.9-0.7,2.8-0.4l0.8,0.3c0,0.2,0,0.4,0.1,0.5L90.4,93.4z M94.1,79.5l-5.5,0.7c-0.1,0-0.1,0-0.2,0
				c-0.2,0.1-0.4,0.2-0.6,0.3l-1.1-0.4c-1.6-0.5-3.3-0.3-4.7,0.6L81.7,81c-0.4-0.3-0.9-0.5-1.4-0.5h-12v-2.1h25.8V79.5L94.1,79.5z
				 M95.9,76.2h-34v-7.5H97l1.6,1.1h-4.5c-0.3,0-0.6,0.1-0.8,0.3l-3.2,3.2c-0.3,0.3-0.4,0.8-0.2,1.2c0.2,0.4,0.6,0.7,1,0.7h6.4
				L95.9,76.2z M99.5,73h-6l1.1-1.1h4.9L99.5,73L99.5,73z"/>
			<path class="st1" d="M86.2,85.6c0.2-0.2,0.3-0.5,0.3-0.8c0-0.3-0.1-0.6-0.3-0.8c-0.4-0.4-1.1-0.4-1.5,0c-0.4,0.4-0.4,1.1,0,1.5
				c0.2,0.2,0.5,0.3,0.8,0.3C85.8,85.9,86,85.7,86.2,85.6z"/>
			<path class="st1" d="M85.8,90.5c-0.4,0.4-0.4,1.1,0,1.5c0.1,0.1,0.2,0.2,0.4,0.2c0.3,0.1,0.6,0.1,0.8,0c0.1-0.1,0.3-0.1,0.4-0.2
				c0.3-0.3,0.4-0.7,0.3-1c-0.1-0.4-0.4-0.7-0.8-0.8C86.5,90.1,86.1,90.2,85.8,90.5z"/>
		</g>
	</g>
</g>
</svg>
